# Aspose.3D Wavefront OBJ Exporter
# Copyright 2004-2020 Aspose Pty Ltd.
# File created: 12/23/2020 4:27:57 PM


#
# object obj_38104573
#

v 0.02899999916553497 0.10284999758005142 0.01114999968558549
v 0.02899999916553497 0.10300224274396896 0.01191536709666252
v -0.02899999916553497 0.10284999758005142 0.01114999968558549
v -0.02899999916553497 0.11614999920129776 0.01288205105811357
v 0.02899999916553497 0.11656421422958374 0.01256421394646167
v -0.02899999916553497 0.11688204854726792 0.01214999984949827
v 0.02899999916553497 0.11591536551713944 -0.01299775950610637
v -0.02899999916553497 0.11514999717473984 -0.01315000001341104
v -0.02899999916553497 0.11614999920129776 -0.01288205105811357
v -0.02899999916553497 0.11688204854726792 -0.01214999984949827
v 0.02899999916553497 0.11656421422958374 -0.01256421394646167
v 0.02899999916553497 0.11514999717473984 -0.01315000001341104
v 0.03070710599422455 0.10408463329076766 0.0118571063503623
v 0.03041421622037887 0.10485000163316726 0.01256421394646167
v 0.03030656278133392 0.10408463329076766 0.01245656330138445
v 0.03070710599422455 0.11591536551713944 0.0118571063503623
v 0.03084775805473327 0.11514999717473984 0.01191536709666252
v 0.03099999949336052 0.11514999717473984 0.01114999968558549
v -0.02899999916553497 0.10384999960660934 0.01288205105811357
v 0.02899999916553497 0.10408463329076766 0.01299775950610637
v -0.02899999916553497 0.10485000163316726 0.01315000001341104
v 0.02899999916553497 0.10485000163316726 0.01315000001341104
v -0.02899999916553497 0.1031179502606392 0.01214999984949827
v 0.02899999916553497 0.10343578457832336 0.01256421394646167
v 0.03000000119209289 0.11656421422958374 0.01214999984949827
v 0.03030656278133392 0.11591536551713944 0.01245656330138445
v 0.03041421622037887 0.11514999717473984 0.01256421394646167
v 0.03084775805473327 0.11591536551713944 0.01114999968558549
v 0.02976536750793457 0.10485000163316726 0.01299775950610637
v 0.02899999916553497 0.11699775606393814 0.01191536709666252
v -0.02899999916553497 0.11715000122785568 0.01114999968558549
v 0.02899999916553497 0.11715000122785568 0.01114999968558549
v -0.02899999916553497 0.10485000163316726 -0.01315000001341104
v 0.02899999916553497 0.10408463329076766 -0.01299775950610637
v -0.02899999916553497 0.10384999960660934 -0.01288205105811357
v 0.02899999916553497 0.10343578457832336 -0.01256421394646167
v -0.02899999916553497 0.1031179502606392 -0.01214999984949827
v 0.02970710769295692 0.10300224274396896 -0.01144289318472147
v 0.02976536750793457 0.10300224274396896 -0.01114999968558549
v 0.02899999916553497 0.10284999758005142 -0.01114999968558549
v 0.03041421622037887 0.10343578457832336 -0.01114999968558549
v -0.02899999916553497 0.11715000122785568 -0.01114999968558549
v 0.02899999916553497 0.11699775606393814 -0.01191536709666252
v 0.02899999916553497 0.11715000122785568 -0.01114999968558549
v 0.02929289266467094 0.11699775606393814 -0.0118571063503623
v 0.03084775805473327 0.10408463329076766 0.01114999968558549
v 0.03099999949336052 0.10485000163316726 0.01114999968558549
v 0.03070366010069847 0.11514999717473984 0.01213102880865335
v 0.03084775805473327 0.10485000163316726 0.01191536709666252
v 0.02899999916553497 0.10386896878480912 0.01285365875810384
v 0.02970710769295692 0.10300224274396896 0.01144289318472147
v 0.02954119816422462 0.10300224274396896 0.01169119589030742
v 0.03030656278133392 0.10343578457832336 0.01169119589030742
v -0.02899999916553497 0.11514999717473984 0.01315000001341104
v 0.02899999916553497 0.11591536551713944 0.01299775950610637
v 0.02899999916553497 0.11514999717473984 0.01315000001341104
v 0.02976536750793457 0.11514999717473984 0.01299775950610637
v 0.02899999916553497 0.11685366183519364 0.01213102880865335
v 0.02899999916553497 0.10386896878480912 -0.01285365875810384
v 0.02954119816422462 0.10343578457832336 -0.01245656330138445
v 0.02899999916553497 0.10485000163316726 -0.01315000001341104
v -0.02899999916553497 0.10284999758005142 -0.01114999968558549
v 0.02899999916553497 0.10300224274396896 -0.01191536709666252
v 0.02976536750793457 0.10300224274396896 0.01114999968558549
v 0.02899999916553497 0.11685366183519364 -0.01213102880865335
v 0.02954119816422462 0.11656421422958374 -0.01245656330138445
v 0.02899999916553497 0.116131030023098 -0.01285365875810384
v 0.02970710769295692 0.11591536551713944 -0.01285710651427507
v 0.03070710599422455 0.10408463329076766 -0.0118571063503623
v 0.03084775805473327 0.10408463329076766 -0.01114999968558549
v 0.03070366010069847 0.10386896878480912 -0.01114999968558549
v 0.03099999949336052 0.10485000163316726 -0.01114999968558549
v 0.03070366010069847 0.10386896878480912 0.01114999968558549
v 0.03070366010069847 0.10485000163316726 0.01213102880865335
v 0.03030656278133392 0.10343578457832336 -0.01169119589030742
v 0.03000000119209289 0.10343578457832336 -0.01214999984949827
v 0.03030656278133392 0.10408463329076766 -0.01245656330138445
v 0.03084775805473327 0.10485000163316726 -0.01191536709666252
v 0.02970710769295692 0.10408463329076766 0.01285710651427507
v 0.02929289266467094 0.10300224274396896 0.0118571063503623
v 0.03000000119209289 0.10343578457832336 0.01214999984949827
v 0.02954119816422462 0.11699775606393814 -0.01169119589030742
v 0.03070366010069847 0.116131030023098 0.01114999968558549
v 0.02899999916553497 0.116131030023098 0.01285365875810384
v 0.02970710769295692 0.11699775606393814 0.01144289318472147
v 0.02976536750793457 0.11699775606393814 0.01114999968558549
v 0.02954119816422462 0.11699775606393814 0.01169119589030742
v 0.02998102828860283 0.11685366183519364 0.01114999968558549
v 0.02929289266467094 0.11699775606393814 0.0118571063503623
v 0.02954119816422462 0.10300224274396896 -0.01169119589030742
v 0.02976536750793457 0.11514999717473984 -0.01299775950610637
v 0.03041421622037887 0.10343578457832336 0.01114999968558549
v 0.02970710769295692 0.10408463329076766 -0.01285710651427507
v 0.03070366010069847 0.10485000163316726 -0.01213102880865335
v 0.02954119816422462 0.10343578457832336 0.01245656330138445
v 0.02970710769295692 0.11699775606393814 -0.01144289318472147
v 0.02976536750793457 0.11699775606393814 -0.01114999968558549
v 0.02998102828860283 0.11685366183519364 -0.01114999968558549
v 0.02970710769295692 0.11591536551713944 0.01285710651427507
v 0.03030656278133392 0.11656421422958374 0.01169119589030742
v 0.03041421622037887 0.11656421422958374 0.01114999968558549
v 0.02954119816422462 0.11656421422958374 0.01245656330138445
v 0.02929289266467094 0.10300224274396896 -0.0118571063503623
v 0.02976536750793457 0.10485000163316726 -0.01299775950610637
v 0.03041421622037887 0.11656421422958374 -0.01114999968558549
v 0.03030656278133392 0.11656421422958374 -0.01169119589030742
v 0.03070366010069847 0.116131030023098 -0.01114999968558549
v 0.03041421622037887 0.10485000163316726 -0.01256421394646167
v 0.03000000119209289 0.11656421422958374 -0.01214999984949827
v 0.03084775805473327 0.11591536551713944 -0.01114999968558549
v 0.03070710599422455 0.11591536551713944 -0.0118571063503623
v 0.03099999949336052 0.11514999717473984 -0.01114999968558549
v 0.03084775805473327 0.11514999717473984 -0.01191536709666252
v 0.03030656278133392 0.11591536551713944 -0.01245656330138445
v 0.03070366010069847 0.11514999717473984 -0.01213102880865335
v 0.03041421622037887 0.11514999717473984 -0.01256421394646167
# 116 vertices

vn 0 -0.98078423738479616 0.19509540498256684
vn -0.00117500161286443 0.70710712671279904 0.70710539817810056
vn -0.00087997032096609 0.25881826877593996 -0.96592563390731808
vn -0.00117500161286443 0.70710712671279904 -0.70710539817810056
vn 0 0.19508942961692812 -0.98078548908233648
vn 0.81608480215072624 -0.19148299098014832 0.54528892040252688
vn 0.96263730525970464 0.19148002564907072 0.19148096442222596
vn -0.00087997032096609 -0.25881826877593996 0.96592563390731808
vn 0 -0.19508942961692812 0.98078548908233648
vn -0.0008799415663816 -0.96592462062835696 0.25882205367088316
vn -0.00117500161286443 -0.70710712671279904 0.70710539817810056
vn 0.00058873515808954 -0.83147174119949344 0.55556684732437136
vn 0.695440411567688 0.54812216758728024 0.4646771252155304
vn 0.81608480215072624 0.19148299098014832 0.54528892040252688
vn 0.96263730525970464 0.19148072600364684 0.19148020446300508
vn 0.19147960841655732 -0.19147960841655732 0.96263760328292848
vn -0.00087994150817394 0.96592462062835696 0.2588220238685608
vn 0 0.98078423738479616 0.19509540498256684
vn -0.00087997032096609 -0.25881826877593996 -0.96592563390731808
vn -0.00117500149644911 -0.70710712671279904 -0.70710539817810056
vn 0.19494843482971192 -0.98004662990570064 -0.03877743706107139
vn 0.55220425128936768 -0.82644158601760864 -0.10983964055776596
vn -0.00087994139175862 0.96592462062835696 -0.2588220238685608
vn 0 0.98078423738479616 -0.19509540498256684
vn 0.03877810761332512 0.98004657030105584 -0.19494865834712984
vn 0.96263730525970464 -0.19148074090480804 0.19148020446300508
vn 0.81608515977859504 0.19148246943950652 0.54528844356536864
vn 0.81608897447586064 0.19148063659667968 0.54528343677520752
vn 0.96263730525970464 -0.19148001074790956 0.19148096442222596
vn 0.0005887247971259 -0.55557066202163696 0.83146911859512336
vn 0.00058872485533356 -0.55556571483612064 0.83147245645523072
vn 0.16526949405670166 -0.98004668951034544 0.11042886972427368
vn 0.46813833713531496 -0.82644045352935792 0.31279811263084412
vn -0.00087997032096609 0.25881826877593996 0.96592563390731808
vn 0 0.19508942961692812 0.98078548908233648
vn 0.19147960841655732 0.19147960841655732 0.96263760328292848
vn 0.00058866263134405 0.83146715164184576 0.55557352304458616
vn 0.00058866251492872 0.83148068189620976 0.55555325746536256
vn 0.0005887247971259 -0.55557066202163696 -0.83146911859512336
vn 0.00058872473891824 -0.55556571483612064 -0.83147245645523072
vn 0.16317211091518402 -0.5481247901916504 -0.82032561302185056
vn 0 -0.19508942961692812 -0.98078548908233648
vn 0 -0.98078423738479616 -0.19509540498256684
vn -0.00087994150817394 -0.96592462062835696 -0.2588220238685608
vn 0.00058873533271253 -0.83147174119949344 -0.55556684732437136
vn 0.10983993113040924 -0.82644081115722656 -0.5522053241729736
vn 0.19494843482971192 -0.98004662990570064 0.03877744078636169
vn 0.00058866263134405 0.83146715164184576 -0.55557352304458616
vn 0.00058866251492872 0.83148068189620976 -0.55555325746536256
vn 0.1098412498831749 0.82643628120422368 -0.55221194028854368
vn 0.10983896255493164 0.82644993066787712 -0.55219197273254392
vn 0.10985109955072402 0.82644230127334592 -0.55220091342926024
vn 0.16317211091518402 0.5481247305870056 -0.82032561302185056
vn 0.00058872485533356 0.55556571483612064 -0.83147245645523072
vn 0.00058872497174888 0.55557066202163696 -0.83146911859512336
vn 0.16317391395568848 0.54811966419219968 -0.82032859325408928
vn 0.16317476332187652 0.54812240600585936 -0.82032662630081184
vn 0.82033348083496096 -0.54811233282089232 -0.16317424178123474
vn 0.96263730525970464 -0.19148072600364684 -0.19148020446300508
vn 0.82032585144042976 -0.5481228232383728 0.1631774753332138
vn 0.82033348083496096 -0.54811233282089232 0.16317424178123474
vn 0.81608515977859504 -0.19148245453834532 0.54528844356536864
vn 0.81608897447586064 -0.19148063659667968 0.54528343677520752
vn 0.82032579183578496 -0.54812312126159664 -0.16317722201347352
vn 0.82032585144042976 -0.5481228232383728 -0.1631774753332138
vn 0.69544053077697752 -0.54812258481979368 -0.46467635035514832
vn 0.55220508575439456 -0.82644051313400272 -0.10984333604574204
vn 0.46467888355255128 -0.5481228232383728 -0.69543868303298952
vn 0.695440411567688 -0.54812210798263552 -0.4646771252155304
vn 0.96263730525970464 -0.19148002564907072 -0.19148096442222596
vn 0.16317391395568848 -0.54811966419219968 0.82032859325408928
vn 0.19148091971874236 -0.19148091971874236 0.96263706684112544
vn 0.5452890396118164 -0.19148068130016328 0.81608515977859504
vn 0.54529017210006712 -0.19148211181163788 0.81608414649963376
vn 0.03877810761332512 -0.98004657030105584 0.19494865834712984
vn 0.1104285940527916 -0.98004662990570064 0.16527003049850464
vn 0.46813824772834776 -0.82644033432006832 0.31279852986335756
vn 0.69544053077697752 -0.54812258481979368 0.46467635035514832
vn 0.695440411567688 -0.54812210798263552 0.4646771252155304
vn 0.31279569864273072 0.82644188404083248 -0.46813741326332096
vn 0.1104285791516304 0.98004662990570064 -0.16527004539966584
vn 0.82033348083496096 0.54811233282089232 0.16317424178123474
vn 0.0005887247971259 0.55557066202163696 0.83146911859512336
vn 0.00058872473891824 0.55556571483612064 0.83147245645523072
vn 0.19494843482971192 0.98004662990570064 0.03877743706107139
vn 0.16526949405670166 0.98004668951034544 0.11042886227369308
vn 0.55219364166259768 0.826448917388916 0.10983753949403762
vn 0.03877810388803482 0.98004657030105584 0.19494865834712984
vn 0.1104285940527916 0.98004662990570064 0.16527003049850464
vn 0.10983896255493164 0.82644993066787712 0.55219197273254392
vn 0.16526949405670166 -0.98004668951034544 -0.11042886972427368
vn 0.31280004978179932 -0.82644063234329216 -0.4681366980075836
vn 0.46813833713531496 -0.82644051313400272 -0.31279811263084412
vn 0.46813824772834776 -0.82644033432006832 -0.31279852986335756
vn 0.19147960841655732 0.19147960841655732 -0.96263760328292848
vn 0.19148091971874236 0.19148093461990356 -0.96263706684112544
vn 0.82032579183578496 -0.54812312126159664 0.16317722201347352
vn 0.55220508575439456 -0.82644051313400272 0.10984333604574204
vn 0.55220425128936768 -0.82644158601760864 0.10983964055776596
vn 0.464678168296814 -0.54812198877334592 -0.69543975591659544
vn 0.16317476332187652 -0.54812240600585936 -0.82032662630081184
vn 0.16317391395568848 -0.54811966419219968 -0.82032859325408928
vn 0.81608897447586064 -0.19148063659667968 -0.54528343677520752
vn 0.31279569864273072 -0.82644188404083248 0.46813741326332096
vn 0.31280004978179932 -0.82644063234329216 0.4681366980075836
vn 0.10983989387750626 -0.82644081115722656 0.55220526456832888
vn 0.10984139144420624 -0.8264413475990296 0.55220425128936768
vn 0.16317208111286164 -0.5481247901916504 0.82032561302185056
vn 0.16317476332187652 -0.54812240600585936 0.82032662630081184
vn 0.464678168296814 -0.54812198877334592 0.69543981552124024
vn 0.46467888355255128 -0.548122763633728 0.69543868303298952
vn 0.55219364166259768 0.826448917388916 -0.10983753949403762
vn 0.19494843482971192 0.98004662990570064 -0.03877743706107139
vn 0.16526950895786286 0.98004662990570064 -0.1104288473725319
vn 0.16317391395568848 0.54811966419219968 0.82032859325408928
vn 0.19148091971874236 0.19148093461990356 0.96263706684112544
vn 0.5452890396118164 0.19148066639900208 0.81608515977859504
vn 0.54529017210006712 0.19148211181163788 0.81608414649963376
vn 0.5522093176841736 0.82643765211105344 0.1098441556096077
vn 0.55220288038253784 0.82644122838974 0.10984990745782852
vn 0.69544053077697752 0.54812258481979368 0.46467635035514832
vn 0.46813824772834776 0.82644033432006832 0.31279852986335756
vn 0.46813833713531496 0.82644045352935792 0.31279811263084412
vn 0.82032585144042976 0.5481228232383728 0.1631774753332138
vn 0.82032579183578496 0.54812312126159664 0.16317722201347352
vn 0.1098412498831749 0.82643628120422368 0.55221194028854368
vn 0.10985109955072402 0.82644230127334592 0.55220091342926024
vn 0.31280004978179932 0.82644063234329216 0.4681366980075836
vn 0.31279569864273072 0.82644188404083248 0.46813741326332096
vn 0.46467888355255128 0.5481228232383728 0.69543862342834472
vn 0.464678168296814 0.54812198877334592 0.69543981552124024
vn 0.16317208111286164 0.5481247901916504 0.82032561302185056
vn 0.16317476332187652 0.54812240600585936 0.82032662630081184
vn 0.03877810388803482 -0.98004657030105584 -0.19494865834712984
vn 0.1104285940527916 -0.98004662990570064 -0.16527003049850464
vn 0.10984139144420624 -0.8264413475990296 -0.55220425128936768
vn 0.31279569864273072 -0.82644188404083248 -0.46813741326332096
vn 0.19147960841655732 -0.19147960841655732 -0.96263760328292848
vn 0.19148091971874236 -0.19148093461990356 -0.96263706684112544
vn 0.5522093176841736 0.82643765211105344 -0.1098441407084465
vn 0.55220288038253784 0.82644122838974 -0.10984990745782852
vn 0.46813833713531496 0.82644051313400272 -0.31279811263084412
vn 0.82032579183578496 0.54812312126159664 -0.16317722201347352
vn 0.54529017210006712 -0.19148209691047668 -0.81608414649963376
vn 0.5452890396118164 -0.19148068130016328 -0.81608515977859504
vn 0.81608480215072624 -0.19148302078247072 -0.54528892040252688
vn 0.81608515977859504 -0.19148245453834532 -0.54528844356536864
vn 0.31280004978179932 0.82644063234329216 -0.4681366980075836
vn 0.46813824772834776 0.82644033432006832 -0.31279852986335756
vn 0.82033348083496096 0.54811233282089232 -0.16317425668239594
vn 0.82032579183578496 0.5481228232383728 -0.1631775051355362
vn 0.96263730525970464 0.19148072600364684 -0.19148020446300508
vn 0.69544053077697752 0.54812258481979368 -0.46467635035514832
vn 0.96263730525970464 0.19148002564907072 -0.19148096442222596
vn 0.695440411567688 0.54812216758728024 -0.4646771252155304
vn 0.464678168296814 0.54812198877334592 -0.69543981552124024
vn 0.46467888355255128 0.548122763633728 -0.69543868303298952
vn 0.81608897447586064 0.19148063659667968 -0.54528343677520752
vn 0.81608480215072624 0.19148302078247072 -0.54528892040252688
vn 0.81608515977859504 0.19148245453834532 -0.54528844356536864
vn 0.5452890396118164 0.19148068130016328 -0.81608515977859504
vn 0.54529017210006712 0.19148211181163788 -0.81608414649963376
vn 0 -1 0
vn 0 1 0
vn 0 0 1
vn 0.19508941471576692 0 0.98078548908233648
vn 0.5555691123008728 0 0.83147042989730832
vn -1 0 0
vn 0.98078519105911248 0 0.19509083032608032
vn 1 0 0
vn 0.19509516656398772 0.98078429698944096 0
vn 0 0 -1
vn 0.19509516656398772 -0.98078429698944096 0
vn 0.98078519105911248 -0.19509056210517884 0
vn 0.83147752285003664 -0.55555832386016848 0
vn 0.83147066831588752 0 0.55556863546371456
vn 0.83147424459457392 0 0.5555633306503296
vn 0.98078519105911248 0.19509056210517884 0
vn 0.55555504560470584 0.83147972822189328 0
vn 0.83147013187408448 -0.55556952953338624 0
vn 0.55556577444076536 -0.83147257566452032 0
vn 0.5555711388587952 0.83146899938583376 0
vn 0.83147752285003664 0.55555832386016848 0
vn 0.83147013187408448 0.55556952953338624 0
vn 0.19508941471576692 0 -0.98078548908233648
vn 0.98078519105911248 0 -0.19509083032608032
vn 0.83147424459457392 0 -0.5555633306503296
vn 0.83147066831588752 0 -0.55556863546371456
vn 0.5555691123008728 0 -0.83147042989730832
# 189 vertex normals

g obj_38104573
s 1
f 1//1 2//1 3//1
f 4//2 5//2 6//2
f 7//3 8//3 9//3
f 10//4 11//4 9//4
f 7//5 12//5 8//5
f 13//6 14//6 15//6
f 16//7 17//7 18//7
f 19//8 20//8 21//8
f 21//9 20//9 22//9
f 2//10 23//10 3//10
f 19//11 23//11 24//11
f 23//12 2//12 24//12
f 16//13 25//13 26//13
f 16//14 26//14 27//14
f 18//15 28//15 16//15
f 20//16 29//16 22//16
f 6//17 30//17 31//17
f 31//18 30//18 32//18
f 33//19 34//19 35//19
f 36//20 37//20 35//20
f 38//21 39//21 40//21
f 39//22 38//22 41//22
f 42//23 43//23 10//23
f 44//24 43//24 42//24
f 44//25 45//25 43//25
f 13//26 46//26 47//26
f 27//27 48//27 16//27
f 17//28 16//28 48//28
f 49//29 13//29 47//29
f 19//30 24//30 50//30
f 19//31 50//31 20//31
f 51//32 52//32 1//32
f 52//33 51//33 53//33
f 54//34 55//34 4//34
f 56//35 55//35 54//35
f 57//36 55//36 56//36
f 5//37 58//37 6//37
f 30//38 6//38 58//38
f 59//39 36//39 35//39
f 34//40 59//40 35//40
f 36//41 59//41 60//41
f 61//42 34//42 33//42
f 40//43 62//43 63//43
f 37//44 63//44 62//44
f 63//45 37//45 36//45
f 60//46 63//46 36//46
f 1//47 64//47 51//47
f 11//48 10//48 65//48
f 43//49 65//49 10//49
f 65//50 66//50 11//50
f 43//51 45//51 65//51
f 66//52 65//52 45//52
f 66//53 67//53 11//53
f 9//54 67//54 7//54
f 11//55 67//55 9//55
f 67//56 68//56 7//56
f 66//57 68//57 67//57
f 69//58 70//58 71//58
f 70//59 69//59 72//59
f 13//60 53//60 73//60
f 13//61 73//61 46//61
f 13//62 74//62 14//62
f 49//63 74//63 13//63
f 41//64 75//64 71//64
f 69//65 71//65 75//65
f 69//66 75//66 76//66
f 38//67 75//67 41//67
f 60//68 77//68 76//68
f 76//69 77//69 69//69
f 69//70 78//70 72//70
f 50//71 79//71 20//71
f 20//72 79//72 29//72
f 29//73 79//73 14//73
f 15//74 14//74 79//74
f 1//75 80//75 2//75
f 52//76 80//76 1//76
f 81//77 52//77 53//77
f 13//78 81//78 53//78
f 15//79 81//79 13//79
f 82//80 66//80 45//80
f 44//81 82//81 45//81
f 28//82 83//82 16//82
f 84//83 5//83 4//83
f 55//84 84//84 4//84
f 85//85 86//85 32//85
f 87//86 85//86 32//86
f 86//87 85//87 88//87
f 30//88 89//88 32//88
f 87//89 32//89 89//89
f 58//90 89//90 30//90
f 38//91 40//91 90//91
f 76//92 90//92 60//92
f 38//93 90//93 75//93
f 75//94 90//94 76//94
f 91//95 12//95 7//95
f 68//96 91//96 7//96
f 73//97 53//97 92//97
f 51//98 92//98 53//98
f 64//99 92//99 51//99
f 60//100 93//100 77//100
f 59//101 93//101 60//101
f 59//102 34//102 93//102
f 78//103 69//103 94//103
f 80//104 52//104 95//104
f 81//105 95//105 52//105
f 2//106 95//106 24//106
f 80//107 95//107 2//107
f 50//108 24//108 95//108
f 95//109 79//109 50//109
f 79//110 95//110 15//110
f 81//111 15//111 95//111
f 96//112 97//112 98//112
f 97//113 96//113 44//113
f 44//114 96//114 82//114
f 99//115 84//115 55//115
f 99//116 55//116 57//116
f 27//117 99//117 57//117
f 26//118 99//118 27//118
f 88//119 100//119 101//119
f 85//120 100//120 88//120
f 16//121 100//121 25//121
f 25//122 100//122 87//122
f 100//123 85//123 87//123
f 83//124 100//124 16//124
f 100//125 83//125 101//125
f 58//126 5//126 102//126
f 102//127 89//127 58//127
f 87//128 102//128 25//128
f 89//129 102//129 87//129
f 26//130 25//130 102//130
f 99//131 26//131 102//131
f 84//132 102//132 5//132
f 99//133 102//133 84//133
f 63//134 103//134 40//134
f 90//135 40//135 103//135
f 103//136 63//136 60//136
f 90//137 103//137 60//137
f 61//138 104//138 34//138
f 93//139 34//139 104//139
f 105//140 106//140 98//140
f 96//141 98//141 106//141
f 96//142 106//142 82//142
f 107//143 106//143 105//143
f 93//144 108//144 77//144
f 104//145 108//145 93//145
f 77//146 108//146 69//146
f 94//147 69//147 108//147
f 82//148 109//148 66//148
f 106//149 109//149 82//149
f 107//150 110//150 111//150
f 106//151 107//151 111//151
f 110//152 112//152 111//152
f 109//153 106//153 111//153
f 111//154 112//154 113//154
f 111//155 114//155 109//155
f 114//156 68//156 66//156
f 109//157 114//157 66//157
f 113//158 115//158 111//158
f 114//159 111//159 116//159
f 115//160 116//160 111//160
f 91//161 68//161 116//161
f 114//162 116//162 68//162
f 62//163 40//163 3//163
f 3//163 40//163 1//163
f 31//164 44//164 42//164
f 32//164 44//164 31//164
f 21//165 56//165 54//165
f 22//165 56//165 21//165
f 56//166 22//166 29//166
f 56//166 29//166 57//166
f 14//167 27//167 29//167
f 57//167 29//167 27//167
f 4//168 6//168 37//168
f 42//168 37//168 31//168
f 62//168 3//168 37//168
f 37//168 23//168 19//168
f 21//168 54//168 37//168
f 31//168 37//168 6//168
f 8//168 33//168 37//168
f 19//168 21//168 37//168
f 4//168 37//168 54//168
f 35//168 37//168 33//168
f 9//168 8//168 37//168
f 42//168 10//168 37//168
f 9//168 37//168 10//168
f 23//168 37//168 3//168
f 17//169 49//169 18//169
f 18//169 49//169 47//169
f 47//170 112//170 18//170
f 72//170 112//170 47//170
f 97//171 44//171 32//171
f 86//171 97//171 32//171
f 8//172 61//172 33//172
f 12//172 61//172 8//172
f 40//173 64//173 1//173
f 39//173 64//173 40//173
f 70//174 72//174 47//174
f 46//174 70//174 47//174
f 46//175 73//175 70//175
f 70//175 73//175 71//175
f 14//176 74//176 27//176
f 27//176 74//176 48//176
f 49//177 17//177 74//177
f 48//177 74//177 17//177
f 112//178 110//178 18//178
f 18//178 110//178 28//178
f 88//179 97//179 86//179
f 97//179 88//179 98//179
f 73//180 92//180 71//180
f 41//180 71//180 92//180
f 92//181 64//181 39//181
f 41//181 92//181 39//181
f 88//182 105//182 98//182
f 88//182 101//182 105//182
f 110//183 107//183 28//183
f 28//183 107//183 83//183
f 105//184 101//184 107//184
f 83//184 107//184 101//184
f 61//185 12//185 104//185
f 91//185 104//185 12//185
f 112//186 72//186 113//186
f 78//186 113//186 72//186
f 78//187 115//187 113//187
f 94//187 115//187 78//187
f 115//188 94//188 116//188
f 108//188 116//188 94//188
f 104//189 91//189 116//189
f 116//189 108//189 104//189
#228 polygons

