# Aspose.3D Wavefront OBJ Exporter
# Copyright 2004-2020 Aspose Pty Ltd.
# File created: 12/23/2020 4:30:34 PM


#
# object obj_59203781
#

v -0.14831611514091492 0.12330523133277894 -0.01856918819248676
v -0.15932923555374146 0.09951866418123246 0.44330582022666928
v -0.14831574261188508 0.12330523133277894 0.44330579042434696
v -0.11746551841497422 -0.15534999966621398 -0.0185692124068737
v -0.125948965549469 -0.15008363127708436 -0.01856920681893825
v -0.03506552800536155 -0.15534999966621398 -0.01856927759945392
v -0.12743207812309266 -0.15283425152301788 -0.0185692049562931
v -0.16494520008563996 -0.07388211041688919 -0.01856917701661586
v -0.16494520008563996 0.07388196140527725 -0.01856917701661586
v -0.03506547585129738 0.15222500264644622 -0.01856927759945392
v -0.03356552496552467 -0.15534999966621398 -0.01816735416650772
v -0.13501028716564178 0.1458897888660431 0.44330579042434696
v -0.13501065969467164 0.1458897888660431 -0.01856919936835765
v -0.03506547585129738 0.15534999966621398 -0.01856927759945392
v -0.12594892084598542 0.15008363127708436 -0.01856920681893825
v -0.11746547371149064 0.15534999966621398 -0.0185692124068737
v -0.11746516078710556 -0.15534999966621398 0.44330579042434696
v -0.1274317055940628 -0.15283425152301788 0.44330579042434696
v -0.1593296080827713 -0.09951875358819962 -0.01856918074190616
v -0.1682877093553543 -0.07236852496862411 -0.01856917329132557
v -0.1593296080827713 0.09951866418123246 -0.01856918074190616
v -0.1682877093553543 0.07236838340759277 -0.01856917329132557
v -0.03246739506721496 0.15222500264644622 -0.01706928014755249
v -0.03246744722127914 -0.15534999966621398 -0.01706928014755249
v -0.1483161449432373 -0.12330527603626252 -0.01856918819248676
v -0.13501033186912536 -0.1458897888660431 0.44330579042434696
v -0.14831577241420746 -0.12330527603626252 0.44330579042434696
v -0.12743166089057922 0.15283426642417908 0.44330579042434696
v -0.11746511608362198 0.15534999966621398 0.44330579042434696
v -0.03246703743934631 0.15222500264644622 0.44180572032928464
v -0.03206516057252884 -0.15534999966621398 0.4403057098388672
v -0.03206511586904526 0.15222500264644622 0.4403057098388672
v -0.15643209218978882 0.0983472540974617 0.44330582022666928
v -0.15932923555374146 -0.09951875358819962 0.44330582022666928
v -0.16794376075267792 -0.07476209849119186 -0.01856917329132557
v -0.16794338822364808 -0.07476209849119186 0.44330582022666928
v -0.14554864168167114 -0.12185388803482056 -0.01856919191777706
v -0.16794376075267792 0.07476196438074112 -0.01856917329132557
v -0.14554861187934876 0.12185384333133698 -0.01856919191777706
v -0.03356548026204109 0.15222500264644622 -0.01816735416650772
v -0.12743203341960906 0.15283426642417908 -0.0185692049562931
v -0.0350651666522026 -0.15534999966621398 0.44330570101737976
v -0.03506511449813843 0.15222500264644622 0.44330570101737976
v -0.15643209218978882 -0.09834735095500946 0.44330582022666928
v -0.13501070439815522 -0.1458897888660431 -0.01856919936835765
v -0.16794338822364808 0.07476196438074112 0.44330582022666928
v -0.03206547349691391 0.15222500264644622 -0.01556927990168333
v -0.03206551820039749 -0.15534999966621398 -0.01556927990168333
v -0.03356516361236572 -0.15534999966621398 0.44290378689765928
v -0.03356511890888214 0.15222500264644622 0.44290378689765928
v -0.03246708959341049 -0.15534999966621398 0.44180572032928464
v -0.16828733682632446 0.07236838340759277 0.44330582022666928
v -0.16828733682632446 -0.07236852496862411 0.44330582022666928
v -0.03506511449813843 0.15534999966621398 0.44330570101737976
v -0.03356511890888214 0.15534999966621398 0.44290378689765928
v -0.03246703743934631 0.15534999966621398 0.44180572032928464
v -0.03206511586904526 0.15534999966621398 0.4403057098388672
v -0.03246739506721496 0.15534999966621398 -0.01706928014755249
v -0.03206547349691391 0.15534999966621398 -0.01556927990168333
v -0.03356548026204109 0.15534999966621398 -0.01816735416650772
# 60 vertices

vn -0.9074495434761048 0.420161098241806 7.319108021874854E-07
vn -7.911721127129567E-07 -2.13416853966919E-07 -1
vn -8.084563773991249E-07 -2.412595279110974E-07 -1
vn -7.744309868940036E-07 0 -1
vn 0.25881832838058472 -4.3886625888944764E-08 -0.96592605113983152
vn -9.933733963407576E-06 5.852355116076069E-06 1
vn -0.8615935444831848 0.50759881734848024 6.949252906451875E-07
vn -7.911721127129567E-07 2.1341723765999632E-07 -1
vn -0.2447427362203598 -0.96958810091018672 1.9739925960493565E-07
vn -0.24474236369132996 -0.96958810091018672 1.8950298397157894E-07
vn -1.1641946002782788E-06 -1.0970046560032642E-07 -1
vn -1.4399786323338049E-06 3.535027133239055E-07 -1
vn -1.164194145530928E-06 1.0970012453981326E-07 -1
vn -0.9074495434761048 0.42016106843948368 7.307855867111357E-07
vn 0.70710557699203488 -1.1972360880463384E-07 -0.70710796117782592
vn -0.86159336566925056 -0.50759917497634888 6.949251201149309E-07
vn -1.1337438081682194E-06 1.2372738638077863E-06 1
vn -1.6619436848941405E-07 6.584098741768685E-07 1
vn 0.96592664718627936 -1.4043037310784712E-07 0.25881603360176088
vn 1.6561750726395985E-07 4.096069119441381E-07 1
vn -1.6619587484001386E-07 -6.584119205399475E-07 1
vn -1.1337414207446272E-06 -1.2372738638077863E-06 1
vn -9.933680303220171E-06 -5.8523287407297175E-06 1
vn -0.90744966268539424 -0.42016077041625976 7.319109158743231E-07
vn -0.90744966268539424 -0.42016074061393736 7.307870646400261E-07
vn -1.4734075648448197E-06 -2.1172378694700456E-07 -1
vn -0.94445955753326416 -0.32862755656242372 7.61761612011469E-07
vn -0.94445955753326416 -0.32862752676010132 7.61761612011469E-07
vn -8.921950893636676E-07 -5.01202208624818E-08 -1
vn -7.765355576339061E-07 -3.355238753499634E-09 -1
vn -7.795822511980077E-07 -1.340421107443035E-08 -1
vn -0.94445973634719856 0.32862704992294312 7.617616688548878E-07
vn -1.4734050637343898E-06 2.1172276376546506E-07 -1
vn -8.515215768056805E-07 6.335152846759229E-08 -1
vn -1.0661333362804726E-06 1.5744258519134746E-07 -1
vn -8.921921903493057E-07 5.0119439265472465E-08 -1
vn -7.765354439470684E-07 3.355660416204387E-09 -1
vn -7.7958213751117E-07 1.3404547694051416E-08 -1
vn 0.70710319280624392 -1.0258587934686147E-07 -0.70711034536361696
vn 0.2588195502758026 -3.7617283510371635E-08 -0.96592569351196288
vn -0.24474103748798372 0.96958851814270016 1.8950196079003945E-07
vn -0.24474136531352996 0.96958833932876592 1.9739813694741315E-07
vn -8.084557521215174E-07 2.4125853315126733E-07 -1
vn -9.088146839530964E-07 1.8714607108449854E-07 -1
vn 1.0850360467884457E-06 -1.752233612112991E-13 1
vn 1.6561688198635238E-07 -4.0960796354738704E-07 1
vn 7.648104087820684E-07 -1.1004084199840031E-13 1
vn 7.648097266610421E-07 0 1
vn -9.088150818570284E-07 -1.871468811032173E-07 -1
vn -8.515214062754239E-07 -6.335101687682254E-08 -1
vn -1.4399715837498661E-06 -3.534982226938155E-07 -1
vn -1.0661374290066306E-06 -1.574440204876737E-07 -1
vn -0.6755865812301636 -0.73728072643280032 5.448998763313284E-07
vn -0.94445973634719856 0.32862699031829832 7.617616688548878E-07
vn 0.96592622995376592 -1.4038938900284847E-07 -0.2588176727294922
vn 0.9659250378608704 -1.6378741918288142E-07 -0.25882214307785036
vn 0.25881394743919372 -3.760717248724177E-08 0.96592724323272704
vn 0.25881272554397584 -4.3885677314392524E-08 0.96592748165130608
vn 0.7071020007133484 -1.0277143047687787E-07 0.7071115970611572
vn 0.96592545509338384 -1.637558852962684E-07 0.25882047414779664
vn 0.70710432529449464 -1.199622374770115E-07 0.70710915327072144
vn -7.74431612171611E-07 0 -1
vn -7.744307595203281E-07 1.5563451135486295E-13 -1
vn -1 0 8.065581482696871E-07
vn -1.1145191365358187E-06 0 -1
vn -1.114519022848981E-06 0 -1
vn 1.0850360467884457E-06 0 1
vn 1.085035933101608E-06 -1.561148535748555E-13 1
vn 0.25881397724151612 0 0.96592724323272704
vn 0.7071020007133484 0 0.7071115970611572
vn 0 1 0
vn 0.96592658758163456 0 0.25881600379943848
vn -0.98983281850814816 -0.14223571121692658 7.983310865711246E-07
vn -0.98983281850814816 -0.14223571121692658 7.983577461345703E-07
vn 0.70710313320159912 0 -0.70711034536361696
vn 0.2588195502758026 0 -0.96592569351196288
vn 0.96592617034912112 0 -0.2588176727294922
vn 1 0 -7.844867582207371E-07
vn -0.67558729648590088 0.73727989196777344 5.44900444765517E-07
vn 0 0 1
vn -0.98983281850814816 0.14223526418209076 7.983577461345703E-07
vn 1 -1.4534167291913036E-07 -7.844867582207371E-07
vn 1 -1.4534174397340394E-07 -7.844867582207371E-07
vn 0 -1 0
# 84 vertex normals

g obj_59203781
s 1
f 1//1 2//1 3//1
f 4//2 5//2 6//2
f 7//3 5//3 4//3
f 8//4 9//4 6//4
f 10//5 11//5 6//5
f 2//6 12//6 3//6
f 3//7 12//7 1//7
f 12//7 13//7 1//7
f 14//8 15//8 16//8
f 7//9 17//9 18//9
f 4//10 17//10 7//10
f 8//11 19//11 20//11
f 13//12 21//12 1//12
f 22//13 21//13 9//13
f 1//14 21//14 2//14
f 11//15 23//15 24//15
f 25//16 26//16 27//16
f 2//17 28//17 12//17
f 29//18 28//18 2//18
f 30//19 31//19 32//19
f 29//20 2//20 33//20
f 17//21 34//21 18//21
f 34//22 26//22 18//22
f 26//23 34//23 27//23
f 27//24 34//24 25//24
f 25//25 34//25 19//25
f 19//26 35//26 20//26
f 36//27 35//27 34//27
f 34//28 35//28 19//28
f 37//29 19//29 8//29
f 37//30 8//30 6//30
f 5//31 37//31 6//31
f 21//32 38//32 2//32
f 21//33 22//33 38//33
f 15//34 39//34 13//34
f 39//35 21//35 13//35
f 21//36 39//36 9//36
f 9//37 39//37 14//37
f 15//38 14//38 39//38
f 23//39 11//39 40//39
f 11//40 10//40 40//40
f 29//41 16//41 41//41
f 41//42 28//42 29//42
f 15//43 41//43 16//43
f 15//44 13//44 41//44
f 17//45 42//45 43//45
f 34//46 17//46 44//46
f 29//47 44//47 17//47
f 33//48 44//48 29//48
f 5//49 7//49 45//49
f 37//50 5//50 45//50
f 26//16 25//16 45//16
f 19//51 45//51 25//51
f 37//52 45//52 19//52
f 18//53 45//53 7//53
f 26//53 45//53 18//53
f 38//54 46//54 2//54
f 47//55 48//55 23//55
f 23//56 48//56 24//56
f 43//57 49//57 50//57
f 42//58 49//58 43//58
f 49//59 30//59 50//59
f 31//60 30//60 51//60
f 49//61 51//61 30//61
f 9//62 14//62 10//62
f 9//63 10//63 6//63
f 52//64 22//64 53//64
f 53//64 22//64 20//64
f 8//65 20//65 22//65
f 22//66 9//66 8//66
f 29//67 43//67 54//67
f 17//68 43//68 29//68
f 43//69 55//69 54//69
f 55//69 43//69 50//69
f 55//70 30//70 56//70
f 55//70 50//70 30//70
f 14//71 16//71 57//71
f 29//71 57//71 16//71
f 58//71 57//71 59//71
f 14//71 57//71 60//71
f 58//71 60//71 57//71
f 57//71 29//71 54//71
f 55//71 56//71 57//71
f 55//71 57//71 54//71
f 30//72 57//72 56//72
f 30//72 32//72 57//72
f 53//73 35//73 36//73
f 53//74 20//74 35//74
f 58//75 40//75 60//75
f 23//75 40//75 58//75
f 60//76 40//76 14//76
f 14//76 40//76 10//76
f 59//77 47//77 58//77
f 58//77 47//77 23//77
f 57//78 47//78 59//78
f 47//78 57//78 32//78
f 12//79 41//79 13//79
f 28//79 41//79 12//79
f 53//80 46//80 52//80
f 44//80 46//80 34//80
f 36//80 46//80 53//80
f 33//80 2//80 46//80
f 34//80 46//80 36//80
f 46//80 44//80 33//80
f 22//81 52//81 46//81
f 38//81 22//81 46//81
f 32//82 48//82 47//82
f 31//83 48//83 32//83
f 11//84 24//84 51//84
f 4//84 6//84 51//84
f 11//84 51//84 6//84
f 17//84 4//84 51//84
f 48//84 51//84 24//84
f 42//84 17//84 51//84
f 51//84 48//84 31//84
f 49//84 42//84 51//84
#116 polygons

